<?xml version="1.0" standalone="no"?>
<!DOCTYPE svg PUBLIC "-//W3C//DTD SVG 20010904//EN"
 "http://www.w3.org/TR/2001/REC-SVG-20010904/DTD/svg10.dtd">
<svg version="1.0" xmlns="http://www.w3.org/2000/svg"
 width="300.000000pt" height="300.000000pt" viewBox="0 0 300.000000 300.000000"
 preserveAspectRatio="xMidYMid meet">
<metadata>
Created by potrace 1.10, written by Peter Selinger 2001-2011
</metadata>
<g transform="translate(0.000000,300.000000) scale(0.100000,-0.100000)"
fill="#06294a" stroke="none">
<path d="M0 1500 l0 -1500 1500 0 1500 0 0 1500 0 1500 -1500 0 -1500 0 0
-1500z m1765 1319 c191 -39 339 -100 497 -205 348 -231 570 -606 607 -1024 9
-102 2 -264 -13 -288 -8 -13 -36 -5 -36 10 0 11 -23 33 -61 58 -12 8 -39 30
-59 48 -21 17 -44 32 -52 32 -8 0 -27 23 -43 51 -26 48 -27 57 -21 126 3 41
10 82 16 93 21 38 10 124 -13 108 -2 -2 -11 3 -20 10 -10 9 -31 11 -65 7 -82
-9 -147 -8 -168 2 -10 6 -38 13 -62 17 -71 11 -178 67 -246 131 -44 40 -141
55 -369 56 l-148 0 -102 -60 c-57 -33 -118 -66 -137 -72 -32 -11 -94 -53 -155
-104 -13 -11 -26 -30 -30 -43 -5 -19 -2 -23 24 -28 32 -7 36 -11 23 -31 -21
-34 -202 -55 -220 -26 -5 7 -80 9 -212 7 -223 -3 -215 -3 -262 -2 -111 3 -163
-5 -193 -30 -57 -47 -50 -77 28 -116 43 -22 48 -36 12 -36 -17 0 -25 -5 -25
-17 1 -19 25 -56 33 -51 3 2 19 -9 36 -24 17 -16 37 -28 44 -28 7 0 19 -6 25
-12 13 -13 102 -35 181 -45 31 -4 45 -10 48 -24 4 -16 15 -19 59 -19 29 0 56
-5 59 -10 4 -6 14 -10 23 -9 26 4 124 -11 155 -23 30 -12 32 -18 15 -65 -9
-25 -18 -33 -38 -35 -14 0 -32 -2 -40 -3 -8 -1 -23 3 -34 8 -13 7 -26 3 -47
-12 -15 -12 -35 -21 -43 -21 -8 0 -18 -5 -21 -10 -3 -6 -18 -7 -33 -3 -23 5
-25 4 -15 -9 7 -8 11 -17 9 -19 -2 -2 -6 -18 -9 -36 -6 -31 -4 -33 33 -44 21
-7 42 -19 46 -28 16 -39 21 -80 11 -90 -8 -8 -5 -11 9 -11 39 0 62 -54 29 -66
-8 -4 -15 -12 -15 -19 0 -8 -24 -15 -70 -19 -57 -6 -70 -11 -75 -27 -4 -13
-12 -18 -21 -15 -8 3 -21 9 -31 13 -13 5 -15 2 -11 -15 3 -11 -3 -34 -13 -51
-11 -18 -19 -38 -19 -47 0 -23 -29 -28 -50 -9 -11 10 -17 21 -15 25 3 4 -3 10
-13 12 -10 3 -44 45 -76 93 -98 146 -165 307 -203 485 -25 120 -25 400 1 520
113 523 508 932 1020 1055 195 47 375 52 561 14z m-1428 -1321 c-3 -8 -6 -5
-6 6 -1 11 2 17 5 13 3 -3 4 -12 1 -19z"/>
<path d="M630 1030 c0 -5 5 -10 10 -10 6 0 10 5 10 10 0 6 -4 10 -10 10 -5 0
-10 -4 -10 -10z"/>
</g>
</svg>
